<?xml version="1.0" encoding="utf-8"?>
<!-- Generator: Adobe Illustrator 16.0.0, SVG Export Plug-In . SVG Version: 6.00 Build 0)  -->
<!DOCTYPE svg PUBLIC "-//W3C//DTD SVG 1.1//EN" "http://www.w3.org/Graphics/SVG/1.1/DTD/svg11.dtd">
<svg version="1.1" xmlns="http://www.w3.org/2000/svg" xmlns:xlink="http://www.w3.org/1999/xlink" x="0px" y="0px" width="1200px"
	 height="1200px" viewBox="0 0 1200 1200" enable-background="new 0 0 1200 1200" xml:space="preserve">
<g id="background">
</g>
<g id="object">
	<g>
		<path fill="none" stroke="#00C3DC" stroke-width="17.2711" stroke-miterlimit="10" d="M696.575,262.343
			c146.036,41.719,252.941,176.18,252.941,335.611c0,192.745-156.251,348.996-348.996,348.996
			c-188.538,0-342.157-149.503-348.774-336.426"/>
		<path fill="none" stroke="#F96800" stroke-width="43.1777" stroke-miterlimit="10" d="M252.035,578.932
			c9.878-183.899,162.123-329.974,348.486-329.974c23.544,0,46.545,2.332,68.783,6.776"/>
	</g>
	<g>
		<path fill="none" stroke="#1A1A1A" stroke-width="17.0503" stroke-miterlimit="10" d="M768.746,837.976
			c-47.613,33.433-105.627,53.057-168.224,53.057c-161.863,0-293.079-131.216-293.079-293.079
			c0-161.863,131.216-293.079,293.079-293.079c131.585,0,242.917,86.717,279.963,206.121"/>
		<path fill="none" stroke="#F96800" stroke-width="43.1777" stroke-miterlimit="10" d="M887.646,538.888
			c3.904,19.079,5.954,38.833,5.954,59.065c0,90.741-41.238,171.851-105.995,225.61"/>
	</g>
	<circle fill="#1A1A1A" cx="600.522" cy="597.954" r="247.634"/>
	<circle fill="#00C3DC" cx="600.522" cy="597.954" r="219.853"/>
	<g>
		
			<line fill="none" stroke="#1A1A1A" stroke-width="17.1191" stroke-miterlimit="10" x1="850.142" y1="156.235" x2="768.061" y2="238.316"/>
		<path fill="none" stroke="#1A1A1A" stroke-width="17.1191" stroke-miterlimit="10" d="M829.693,270.728
			c102.976,72.252,170.289,191.878,170.289,327.226c0,220.616-178.845,399.46-399.46,399.46
			c-72.572,0-140.623-19.352-199.275-53.178"/>
		<path fill="none" stroke="#1A1A1A" stroke-width="17.1186" stroke-miterlimit="10" d="M360.83,917.54
			c-97.016-72.879-159.769-188.904-159.769-319.586c0-220.616,178.845-399.461,399.461-399.461
			c72.503,0,140.497,19.316,199.112,53.084"/>
		
			<line fill="none" stroke="#1A1A1A" stroke-width="17.1191" stroke-miterlimit="10" x1="425.654" y1="961.6" x2="333.629" y2="1053.625"/>
		<g>
			
				<line fill="none" stroke="#1A1A1A" stroke-width="17.1191" stroke-miterlimit="10" x1="411.458" y1="943.073" x2="274.961" y2="1079.482"/>
			<circle fill="#1A1A1A" cx="274.961" cy="1079.482" r="23.976"/>
		</g>
		<g>
			
				<line fill="none" stroke="#1A1A1A" stroke-width="17.1191" stroke-miterlimit="10" x1="921.607" y1="120.518" x2="789.279" y2="252.847"/>
			<circle fill="#1A1A1A" cx="921.608" cy="120.518" r="23.976"/>
		</g>
	</g>
	<g>
		<circle fill="#F96800" cx="291.921" cy="802.804" r="90.86"/>
		<circle fill="#1A1A1A" cx="291.921" cy="802.804" r="76.826"/>
		<circle fill="#00C3DC" cx="291.921" cy="802.804" r="58.986"/>
	</g>
	<g>
		<circle fill="#00C3DC" cx="979.344" cy="559.527" r="119.288"/>
		<circle fill="#1A1A1A" cx="979.344" cy="559.527" r="100.863"/>
		<circle fill="#00C3DC" cx="979.344" cy="559.527" r="77.441"/>
	</g>
	<g>
		<circle fill="#00C3DC" cx="324.855" cy="323.574" r="74.617"/>
		<circle fill="#1A1A1A" cx="324.855" cy="323.574" r="63.092"/>
		<circle fill="#00C3DC" cx="324.855" cy="323.574" r="48.441"/>
	</g>
	<g>
		<circle fill="#F96800" cx="688.206" cy="949.431" r="67.776"/>
		<circle fill="#1A1A1A" cx="688.206" cy="949.431" r="57.308"/>
		<circle fill="#00C3DC" cx="688.207" cy="949.431" r="44"/>
	</g>
	<g>
		<defs>
			<circle id="SVGID_1_" cx="955.396" cy="681.226" r="61.654"/>
		</defs>
		<clipPath id="SVGID_2_">
			<use xlink:href="#SVGID_1_"  overflow="visible"/>
		</clipPath>
		<g clip-path="url(#SVGID_2_)">
			<g>
				<circle cx="893.451" cy="619.398" r="2.922"/>
				<circle cx="904.714" cy="619.398" r="2.922"/>
				<circle cx="915.977" cy="619.398" r="2.922"/>
				<circle cx="927.239" cy="619.398" r="2.922"/>
				<circle cx="938.502" cy="619.398" r="2.922"/>
				<circle cx="949.764" cy="619.398" r="2.922"/>
				<circle cx="961.027" cy="619.398" r="2.922"/>
				<circle cx="972.29" cy="619.398" r="2.922"/>
				<circle cx="983.553" cy="619.398" r="2.922"/>
				<circle cx="994.815" cy="619.398" r="2.922"/>
				<circle cx="1006.078" cy="619.398" r="2.922"/>
				<circle cx="1017.34" cy="619.398" r="2.922"/>
			</g>
			<g>
				<circle cx="893.451" cy="630.64" r="2.922"/>
				<circle cx="904.714" cy="630.64" r="2.922"/>
				<circle cx="915.977" cy="630.64" r="2.922"/>
				<circle cx="927.239" cy="630.64" r="2.922"/>
				<circle cx="938.502" cy="630.64" r="2.922"/>
				<circle cx="949.764" cy="630.64" r="2.922"/>
				<circle cx="961.027" cy="630.64" r="2.922"/>
				<circle cx="972.29" cy="630.64" r="2.922"/>
				<circle cx="983.553" cy="630.64" r="2.922"/>
				<circle cx="994.815" cy="630.64" r="2.922"/>
				<circle cx="1006.078" cy="630.64" r="2.922"/>
				<circle cx="1017.34" cy="630.64" r="2.922"/>
			</g>
			<g>
				<circle cx="893.451" cy="641.881" r="2.922"/>
				<circle cx="904.714" cy="641.881" r="2.922"/>
				<circle cx="915.977" cy="641.881" r="2.922"/>
				<circle cx="927.239" cy="641.881" r="2.922"/>
				<circle cx="938.502" cy="641.881" r="2.922"/>
				<circle cx="949.764" cy="641.881" r="2.922"/>
				<circle cx="961.027" cy="641.881" r="2.922"/>
				<circle cx="972.29" cy="641.881" r="2.922"/>
				<circle cx="983.552" cy="641.881" r="2.922"/>
				<circle cx="994.815" cy="641.881" r="2.922"/>
				<circle cx="1006.078" cy="641.881" r="2.922"/>
				<circle cx="1017.34" cy="641.881" r="2.922"/>
			</g>
			<g>
				<circle cx="893.451" cy="653.122" r="2.922"/>
				<circle cx="904.714" cy="653.122" r="2.922"/>
				<circle cx="915.977" cy="653.122" r="2.922"/>
				<circle cx="927.239" cy="653.122" r="2.922"/>
				<circle cx="938.502" cy="653.122" r="2.922"/>
				<circle cx="949.764" cy="653.122" r="2.922"/>
				<circle cx="961.027" cy="653.122" r="2.922"/>
				<circle cx="972.29" cy="653.122" r="2.922"/>
				<circle cx="983.553" cy="653.122" r="2.922"/>
				<circle cx="994.815" cy="653.122" r="2.922"/>
				<circle cx="1006.078" cy="653.122" r="2.922"/>
				<circle cx="1017.34" cy="653.122" r="2.922"/>
			</g>
			<g>
				<circle cx="893.451" cy="664.363" r="2.922"/>
				<circle cx="904.714" cy="664.363" r="2.922"/>
				<circle cx="915.977" cy="664.363" r="2.922"/>
				<circle cx="927.239" cy="664.363" r="2.922"/>
				<circle cx="938.502" cy="664.363" r="2.922"/>
				<circle cx="949.764" cy="664.363" r="2.922"/>
				<circle cx="961.027" cy="664.363" r="2.922"/>
				<circle cx="972.29" cy="664.363" r="2.922"/>
				<circle cx="983.553" cy="664.363" r="2.922"/>
				<circle cx="994.815" cy="664.363" r="2.922"/>
				<circle cx="1006.078" cy="664.363" r="2.922"/>
				<circle cx="1017.34" cy="664.363" r="2.922"/>
			</g>
			<g>
				<circle cx="893.451" cy="675.604" r="2.922"/>
				<circle cx="904.714" cy="675.604" r="2.922"/>
				<circle cx="915.977" cy="675.604" r="2.922"/>
				<circle cx="927.239" cy="675.604" r="2.922"/>
				<circle cx="938.502" cy="675.604" r="2.922"/>
				<circle cx="949.764" cy="675.604" r="2.922"/>
				<circle cx="961.027" cy="675.604" r="2.922"/>
				<circle cx="972.29" cy="675.604" r="2.922"/>
				<circle cx="983.552" cy="675.604" r="2.922"/>
				<circle cx="994.815" cy="675.604" r="2.922"/>
				<circle cx="1006.078" cy="675.604" r="2.922"/>
				<circle cx="1017.34" cy="675.604" r="2.922"/>
			</g>
			<g>
				<circle cx="893.451" cy="686.846" r="2.922"/>
				<circle cx="904.714" cy="686.846" r="2.922"/>
				<circle cx="915.977" cy="686.846" r="2.922"/>
				<circle cx="927.239" cy="686.846" r="2.922"/>
				<circle cx="938.502" cy="686.846" r="2.922"/>
				<circle cx="949.765" cy="686.846" r="2.922"/>
				<circle cx="961.027" cy="686.846" r="2.922"/>
				<circle cx="972.29" cy="686.846" r="2.922"/>
				<circle cx="983.552" cy="686.846" r="2.922"/>
				<circle cx="994.815" cy="686.846" r="2.922"/>
				<circle cx="1006.078" cy="686.846" r="2.922"/>
				<circle cx="1017.34" cy="686.846" r="2.922"/>
			</g>
			<g>
				<circle cx="893.451" cy="698.087" r="2.922"/>
				<circle cx="904.714" cy="698.087" r="2.922"/>
				<circle cx="915.977" cy="698.087" r="2.922"/>
				<circle cx="927.239" cy="698.087" r="2.922"/>
				<circle cx="938.502" cy="698.087" r="2.922"/>
				<circle cx="949.765" cy="698.087" r="2.922"/>
				<circle cx="961.027" cy="698.087" r="2.922"/>
				<circle cx="972.29" cy="698.087" r="2.922"/>
				<circle cx="983.552" cy="698.087" r="2.922"/>
				<circle cx="994.815" cy="698.087" r="2.922"/>
				<circle cx="1006.078" cy="698.087" r="2.922"/>
				<circle cx="1017.34" cy="698.087" r="2.922"/>
			</g>
			<g>
				<circle cx="893.451" cy="709.328" r="2.922"/>
				<circle cx="904.714" cy="709.328" r="2.922"/>
				<circle cx="915.977" cy="709.328" r="2.922"/>
				<circle cx="927.239" cy="709.328" r="2.922"/>
				<circle cx="938.502" cy="709.328" r="2.922"/>
				<circle cx="949.765" cy="709.328" r="2.922"/>
				<circle cx="961.027" cy="709.328" r="2.922"/>
				<circle cx="972.29" cy="709.328" r="2.922"/>
				<circle cx="983.552" cy="709.328" r="2.922"/>
				<circle cx="994.815" cy="709.328" r="2.922"/>
				<circle cx="1006.078" cy="709.328" r="2.922"/>
				<circle cx="1017.34" cy="709.328" r="2.922"/>
			</g>
			<g>
				<circle cx="893.451" cy="720.569" r="2.922"/>
				<circle cx="904.714" cy="720.569" r="2.922"/>
				<circle cx="915.977" cy="720.569" r="2.922"/>
				<circle cx="927.239" cy="720.569" r="2.922"/>
				<circle cx="938.502" cy="720.569" r="2.922"/>
				<circle cx="949.765" cy="720.569" r="2.922"/>
				<circle cx="961.027" cy="720.569" r="2.922"/>
				<circle cx="972.29" cy="720.569" r="2.922"/>
				<circle cx="983.552" cy="720.569" r="2.922"/>
				<circle cx="994.815" cy="720.569" r="2.922"/>
				<circle cx="1006.078" cy="720.569" r="2.922"/>
				<circle cx="1017.34" cy="720.569" r="2.922"/>
			</g>
			<g>
				<circle cx="893.451" cy="731.812" r="2.922"/>
				<circle cx="904.714" cy="731.812" r="2.922"/>
				<circle cx="915.977" cy="731.812" r="2.922"/>
				<circle cx="927.239" cy="731.812" r="2.922"/>
				<circle cx="938.502" cy="731.812" r="2.922"/>
				<circle cx="949.765" cy="731.812" r="2.922"/>
				<circle cx="961.027" cy="731.812" r="2.922"/>
				<circle cx="972.29" cy="731.812" r="2.922"/>
				<circle cx="983.552" cy="731.812" r="2.922"/>
				<circle cx="994.815" cy="731.812" r="2.922"/>
				<circle cx="1006.078" cy="731.812" r="2.922"/>
				<circle cx="1017.34" cy="731.812" r="2.922"/>
			</g>
			<g>
				<circle cx="893.451" cy="743.053" r="2.922"/>
				<circle cx="904.714" cy="743.053" r="2.922"/>
				<circle cx="915.977" cy="743.053" r="2.922"/>
				<circle cx="927.239" cy="743.053" r="2.922"/>
				<circle cx="938.502" cy="743.053" r="2.922"/>
				<circle cx="949.765" cy="743.053" r="2.922"/>
				<circle cx="961.027" cy="743.053" r="2.922"/>
				<circle cx="972.29" cy="743.053" r="2.922"/>
				<circle cx="983.552" cy="743.053" r="2.922"/>
				<circle cx="994.815" cy="743.053" r="2.922"/>
				<circle cx="1006.078" cy="743.053" r="2.922"/>
				<circle cx="1017.34" cy="743.053" r="2.922"/>
			</g>
		</g>
	</g>
	<g>
		<defs>
			<circle id="SVGID_3_" cx="232.935" cy="578.932" r="91.921"/>
		</defs>
		<clipPath id="SVGID_4_">
			<use xlink:href="#SVGID_3_"  overflow="visible"/>
		</clipPath>
		<g clip-path="url(#SVGID_4_)">
			<g>
				<circle cx="140.581" cy="486.753" r="4.357"/>
				<circle cx="157.372" cy="486.753" r="4.357"/>
				<circle cx="174.164" cy="486.753" r="4.357"/>
				<circle cx="190.956" cy="486.753" r="4.357"/>
				<circle cx="207.747" cy="486.753" r="4.357"/>
				<circle cx="224.539" cy="486.753" r="4.357"/>
				<circle cx="241.331" cy="486.753" r="4.356"/>
				<circle cx="258.122" cy="486.753" r="4.357"/>
				<circle cx="274.914" cy="486.753" r="4.357"/>
				<circle cx="291.706" cy="486.753" r="4.357"/>
				<circle cx="308.497" cy="486.753" r="4.357"/>
				<circle cx="325.289" cy="486.753" r="4.356"/>
			</g>
			<g>
				<circle cx="140.581" cy="503.513" r="4.357"/>
				<circle cx="157.372" cy="503.513" r="4.357"/>
				<circle cx="174.164" cy="503.513" r="4.357"/>
				<circle cx="190.956" cy="503.513" r="4.357"/>
				<circle cx="207.747" cy="503.513" r="4.356"/>
				<circle cx="224.539" cy="503.513" r="4.357"/>
				<circle cx="241.331" cy="503.513" r="4.356"/>
				<circle cx="258.123" cy="503.513" r="4.357"/>
				<circle cx="274.914" cy="503.513" r="4.357"/>
				<circle cx="291.706" cy="503.513" r="4.357"/>
				<circle cx="308.497" cy="503.513" r="4.357"/>
				<circle cx="325.289" cy="503.513" r="4.356"/>
			</g>
			<g>
				<circle cx="140.58" cy="520.272" r="4.357"/>
				<circle cx="157.373" cy="520.272" r="4.356"/>
				<circle cx="174.164" cy="520.272" r="4.357"/>
				<circle cx="190.956" cy="520.272" r="4.357"/>
				<circle cx="207.747" cy="520.272" r="4.356"/>
				<circle cx="224.539" cy="520.272" r="4.357"/>
				<circle cx="241.331" cy="520.272" r="4.356"/>
				<circle cx="258.122" cy="520.272" r="4.357"/>
				<circle cx="274.914" cy="520.272" r="4.357"/>
				<circle cx="291.706" cy="520.272" r="4.357"/>
				<circle cx="308.497" cy="520.272" r="4.357"/>
				<circle cx="325.289" cy="520.272" r="4.357"/>
			</g>
			<g>
				<circle cx="140.581" cy="537.032" r="4.357"/>
				<circle cx="157.372" cy="537.032" r="4.357"/>
				<circle cx="174.164" cy="537.032" r="4.357"/>
				<circle cx="190.956" cy="537.032" r="4.357"/>
				<circle cx="207.747" cy="537.032" r="4.357"/>
				<circle cx="224.539" cy="537.032" r="4.357"/>
				<circle cx="241.331" cy="537.032" r="4.356"/>
				<circle cx="258.123" cy="537.032" r="4.357"/>
				<circle cx="274.914" cy="537.032" r="4.357"/>
				<circle cx="291.706" cy="537.032" r="4.356"/>
				<circle cx="308.497" cy="537.032" r="4.357"/>
				<circle cx="325.289" cy="537.032" r="4.356"/>
			</g>
			<g>
				<circle cx="140.581" cy="553.792" r="4.357"/>
				<circle cx="157.372" cy="553.792" r="4.357"/>
				<circle cx="174.164" cy="553.792" r="4.357"/>
				<circle cx="190.956" cy="553.792" r="4.357"/>
				<circle cx="207.747" cy="553.792" r="4.357"/>
				<circle cx="224.539" cy="553.792" r="4.357"/>
				<circle cx="241.331" cy="553.792" r="4.356"/>
				<circle cx="258.122" cy="553.792" r="4.357"/>
				<circle cx="274.914" cy="553.792" r="4.357"/>
				<circle cx="291.706" cy="553.792" r="4.356"/>
				<circle cx="308.497" cy="553.792" r="4.357"/>
				<circle cx="325.289" cy="553.792" r="4.356"/>
			</g>
			<g>
				<circle cx="140.58" cy="570.552" r="4.357"/>
				<circle cx="157.373" cy="570.552" r="4.356"/>
				<circle cx="174.164" cy="570.552" r="4.356"/>
				<circle cx="190.956" cy="570.552" r="4.357"/>
				<circle cx="207.747" cy="570.552" r="4.357"/>
				<circle cx="224.539" cy="570.552" r="4.357"/>
				<circle cx="241.331" cy="570.552" r="4.356"/>
				<circle cx="258.122" cy="570.552" r="4.357"/>
				<circle cx="274.914" cy="570.552" r="4.357"/>
				<circle cx="291.706" cy="570.552" r="4.356"/>
				<circle cx="308.497" cy="570.552" r="4.357"/>
				<circle cx="325.289" cy="570.552" r="4.357"/>
			</g>
			<g>
				<circle cx="140.58" cy="587.312" r="4.357"/>
				<circle cx="157.373" cy="587.312" r="4.356"/>
				<circle cx="174.164" cy="587.312" r="4.356"/>
				<circle cx="190.956" cy="587.312" r="4.357"/>
				<circle cx="207.747" cy="587.312" r="4.357"/>
				<circle cx="224.539" cy="587.312" r="4.357"/>
				<circle cx="241.331" cy="587.312" r="4.356"/>
				<circle cx="258.122" cy="587.312" r="4.357"/>
				<circle cx="274.914" cy="587.312" r="4.357"/>
				<circle cx="291.706" cy="587.312" r="4.356"/>
				<circle cx="308.497" cy="587.312" r="4.357"/>
				<circle cx="325.289" cy="587.312" r="4.356"/>
			</g>
			<g>
				<circle cx="140.581" cy="604.071" r="4.357"/>
				<circle cx="157.372" cy="604.071" r="4.357"/>
				<circle cx="174.164" cy="604.071" r="4.356"/>
				<circle cx="190.956" cy="604.071" r="4.357"/>
				<circle cx="207.747" cy="604.071" r="4.357"/>
				<circle cx="224.539" cy="604.071" r="4.357"/>
				<circle cx="241.331" cy="604.071" r="4.356"/>
				<circle cx="258.122" cy="604.071" r="4.357"/>
				<circle cx="274.914" cy="604.071" r="4.357"/>
				<circle cx="291.706" cy="604.071" r="4.356"/>
				<circle cx="308.497" cy="604.071" r="4.357"/>
				<circle cx="325.289" cy="604.071" r="4.356"/>
			</g>
			<g>
				<circle cx="140.581" cy="620.831" r="4.357"/>
				<circle cx="157.372" cy="620.831" r="4.357"/>
				<circle cx="174.164" cy="620.831" r="4.356"/>
				<circle cx="190.956" cy="620.831" r="4.357"/>
				<circle cx="207.747" cy="620.831" r="4.356"/>
				<circle cx="224.539" cy="620.831" r="4.357"/>
				<circle cx="241.331" cy="620.831" r="4.356"/>
				<circle cx="258.122" cy="620.831" r="4.357"/>
				<circle cx="274.914" cy="620.831" r="4.357"/>
				<circle cx="291.706" cy="620.831" r="4.356"/>
				<circle cx="308.497" cy="620.831" r="4.357"/>
				<circle cx="325.289" cy="620.831" r="4.356"/>
			</g>
			<g>
				<circle cx="140.581" cy="637.591" r="4.357"/>
				<circle cx="157.372" cy="637.591" r="4.357"/>
				<circle cx="174.164" cy="637.591" r="4.356"/>
				<circle cx="190.956" cy="637.591" r="4.357"/>
				<circle cx="207.747" cy="637.591" r="4.356"/>
				<circle cx="224.539" cy="637.591" r="4.357"/>
				<circle cx="241.331" cy="637.591" r="4.356"/>
				<circle cx="258.122" cy="637.591" r="4.357"/>
				<circle cx="274.914" cy="637.591" r="4.357"/>
				<circle cx="291.706" cy="637.591" r="4.356"/>
				<circle cx="308.497" cy="637.591" r="4.357"/>
				<circle cx="325.289" cy="637.591" r="4.356"/>
			</g>
			<g>
				<circle cx="140.581" cy="654.351" r="4.357"/>
				<circle cx="157.372" cy="654.351" r="4.357"/>
				<circle cx="174.164" cy="654.351" r="4.356"/>
				<circle cx="190.956" cy="654.351" r="4.357"/>
				<circle cx="207.747" cy="654.351" r="4.357"/>
				<circle cx="224.539" cy="654.351" r="4.357"/>
				<circle cx="241.331" cy="654.351" r="4.356"/>
				<circle cx="258.122" cy="654.351" r="4.357"/>
				<circle cx="274.914" cy="654.351" r="4.357"/>
				<circle cx="291.706" cy="654.351" r="4.356"/>
				<circle cx="308.497" cy="654.351" r="4.357"/>
				<circle cx="325.289" cy="654.351" r="4.356"/>
			</g>
			<g>
				<circle cx="140.581" cy="671.11" r="4.357"/>
				<circle cx="157.372" cy="671.11" r="4.357"/>
				<circle cx="174.164" cy="671.11" r="4.356"/>
				<circle cx="190.956" cy="671.11" r="4.357"/>
				<circle cx="207.747" cy="671.11" r="4.357"/>
				<circle cx="224.539" cy="671.11" r="4.357"/>
				<circle cx="241.331" cy="671.11" r="4.356"/>
				<circle cx="258.122" cy="671.11" r="4.357"/>
				<circle cx="274.914" cy="671.11" r="4.357"/>
				<circle cx="291.706" cy="671.11" r="4.356"/>
				<circle cx="308.497" cy="671.11" r="4.357"/>
				<circle cx="325.289" cy="671.11" r="4.356"/>
			</g>
		</g>
	</g>
	<g>
		<defs>
			<circle id="SVGID_5_" cx="863.475" cy="348.318" r="41.641"/>
		</defs>
		<clipPath id="SVGID_6_">
			<use xlink:href="#SVGID_5_"  overflow="visible"/>
		</clipPath>
		<g clip-path="url(#SVGID_6_)">
			<g>
				<circle cx="821.637" cy="306.56" r="1.974"/>
				<circle cx="829.244" cy="306.56" r="1.974"/>
				<circle cx="836.851" cy="306.56" r="1.973"/>
				<circle cx="844.458" cy="306.56" r="1.974"/>
				<circle cx="852.064" cy="306.56" r="1.974"/>
				<circle cx="859.672" cy="306.56" r="1.974"/>
				<circle cx="867.278" cy="306.56" r="1.974"/>
				<circle cx="874.886" cy="306.56" r="1.974"/>
				<circle cx="882.492" cy="306.56" r="1.974"/>
				<circle cx="890.099" cy="306.56" r="1.974"/>
				<circle cx="897.706" cy="306.56" r="1.974"/>
				<circle cx="905.313" cy="306.56" r="1.974"/>
			</g>
			<g>
				<circle cx="821.637" cy="314.152" r="1.974"/>
				<circle cx="829.244" cy="314.152" r="1.974"/>
				<circle cx="836.851" cy="314.152" r="1.973"/>
				<circle cx="844.458" cy="314.152" r="1.974"/>
				<circle cx="852.064" cy="314.152" r="1.974"/>
				<circle cx="859.672" cy="314.152" r="1.974"/>
				<circle cx="867.278" cy="314.152" r="1.974"/>
				<circle cx="874.886" cy="314.152" r="1.974"/>
				<circle cx="882.492" cy="314.152" r="1.974"/>
				<circle cx="890.099" cy="314.152" r="1.974"/>
				<circle cx="897.706" cy="314.152" r="1.974"/>
				<circle cx="905.313" cy="314.152" r="1.974"/>
			</g>
			<g>
				<circle cx="821.637" cy="321.745" r="1.974"/>
				<circle cx="829.244" cy="321.745" r="1.974"/>
				<circle cx="836.851" cy="321.745" r="1.973"/>
				<circle cx="844.458" cy="321.745" r="1.974"/>
				<circle cx="852.064" cy="321.745" r="1.974"/>
				<circle cx="859.672" cy="321.745" r="1.974"/>
				<circle cx="867.278" cy="321.745" r="1.974"/>
				<circle cx="874.886" cy="321.745" r="1.974"/>
				<circle cx="882.492" cy="321.745" r="1.974"/>
				<circle cx="890.099" cy="321.745" r="1.974"/>
				<circle cx="897.706" cy="321.745" r="1.974"/>
				<circle cx="905.313" cy="321.745" r="1.974"/>
			</g>
			<g>
				<circle cx="821.637" cy="329.337" r="1.974"/>
				<circle cx="829.244" cy="329.337" r="1.974"/>
				<circle cx="836.851" cy="329.337" r="1.973"/>
				<circle cx="844.458" cy="329.337" r="1.974"/>
				<circle cx="852.064" cy="329.337" r="1.974"/>
				<circle cx="859.672" cy="329.337" r="1.974"/>
				<circle cx="867.278" cy="329.337" r="1.974"/>
				<circle cx="874.886" cy="329.337" r="1.974"/>
				<circle cx="882.492" cy="329.337" r="1.974"/>
				<circle cx="890.099" cy="329.337" r="1.974"/>
				<circle cx="897.706" cy="329.337" r="1.974"/>
				<circle cx="905.313" cy="329.337" r="1.974"/>
			</g>
			<g>
				<circle cx="821.637" cy="336.929" r="1.974"/>
				<circle cx="829.244" cy="336.929" r="1.974"/>
				<circle cx="836.851" cy="336.929" r="1.974"/>
				<circle cx="844.458" cy="336.929" r="1.974"/>
				<circle cx="852.064" cy="336.929" r="1.974"/>
				<circle cx="859.672" cy="336.929" r="1.974"/>
				<circle cx="867.278" cy="336.929" r="1.974"/>
				<circle cx="874.886" cy="336.929" r="1.974"/>
				<circle cx="882.492" cy="336.929" r="1.974"/>
				<circle cx="890.099" cy="336.929" r="1.974"/>
				<circle cx="897.706" cy="336.929" r="1.974"/>
				<circle cx="905.313" cy="336.929" r="1.974"/>
			</g>
			<g>
				<circle cx="821.637" cy="344.521" r="1.974"/>
				<circle cx="829.244" cy="344.521" r="1.974"/>
				<circle cx="836.851" cy="344.521" r="1.974"/>
				<circle cx="844.458" cy="344.521" r="1.974"/>
				<circle cx="852.064" cy="344.521" r="1.974"/>
				<circle cx="859.672" cy="344.521" r="1.974"/>
				<circle cx="867.278" cy="344.521" r="1.974"/>
				<circle cx="874.886" cy="344.521" r="1.974"/>
				<circle cx="882.492" cy="344.521" r="1.974"/>
				<circle cx="890.099" cy="344.521" r="1.974"/>
				<circle cx="897.706" cy="344.521" r="1.974"/>
				<circle cx="905.313" cy="344.521" r="1.974"/>
			</g>
			<g>
				<circle cx="821.637" cy="352.114" r="1.974"/>
				<circle cx="829.244" cy="352.114" r="1.974"/>
				<circle cx="836.851" cy="352.114" r="1.974"/>
				<circle cx="844.458" cy="352.114" r="1.974"/>
				<circle cx="852.064" cy="352.114" r="1.974"/>
				<circle cx="859.672" cy="352.114" r="1.974"/>
				<circle cx="867.278" cy="352.114" r="1.974"/>
				<circle cx="874.886" cy="352.114" r="1.974"/>
				<circle cx="882.492" cy="352.114" r="1.974"/>
				<circle cx="890.099" cy="352.114" r="1.974"/>
				<circle cx="897.706" cy="352.114" r="1.974"/>
				<circle cx="905.313" cy="352.114" r="1.973"/>
			</g>
			<g>
				<circle cx="821.637" cy="359.707" r="1.974"/>
				<circle cx="829.244" cy="359.707" r="1.974"/>
				<circle cx="836.851" cy="359.707" r="1.974"/>
				<circle cx="844.458" cy="359.707" r="1.974"/>
				<circle cx="852.064" cy="359.707" r="1.974"/>
				<circle cx="859.672" cy="359.707" r="1.974"/>
				<circle cx="867.278" cy="359.707" r="1.974"/>
				<circle cx="874.886" cy="359.707" r="1.974"/>
				<circle cx="882.492" cy="359.707" r="1.974"/>
				<circle cx="890.099" cy="359.707" r="1.974"/>
				<circle cx="897.706" cy="359.707" r="1.974"/>
				<circle cx="905.313" cy="359.707" r="1.973"/>
			</g>
			<g>
				<circle cx="821.637" cy="367.299" r="1.974"/>
				<circle cx="829.244" cy="367.299" r="1.974"/>
				<circle cx="836.851" cy="367.299" r="1.974"/>
				<circle cx="844.458" cy="367.299" r="1.974"/>
				<circle cx="852.064" cy="367.299" r="1.974"/>
				<circle cx="859.672" cy="367.299" r="1.974"/>
				<circle cx="867.278" cy="367.299" r="1.974"/>
				<circle cx="874.886" cy="367.299" r="1.974"/>
				<circle cx="882.492" cy="367.299" r="1.974"/>
				<circle cx="890.099" cy="367.299" r="1.974"/>
				<circle cx="897.706" cy="367.299" r="1.974"/>
				<circle cx="905.313" cy="367.299" r="1.974"/>
			</g>
			<g>
				<circle cx="821.637" cy="374.891" r="1.974"/>
				<circle cx="829.244" cy="374.892" r="1.974"/>
				<circle cx="836.851" cy="374.892" r="1.974"/>
				<circle cx="844.458" cy="374.892" r="1.974"/>
				<circle cx="852.064" cy="374.892" r="1.974"/>
				<circle cx="859.672" cy="374.892" r="1.974"/>
				<circle cx="867.278" cy="374.891" r="1.974"/>
				<circle cx="874.886" cy="374.892" r="1.974"/>
				<circle cx="882.492" cy="374.892" r="1.974"/>
				<circle cx="890.099" cy="374.891" r="1.974"/>
				<circle cx="897.706" cy="374.892" r="1.974"/>
				<circle cx="905.313" cy="374.892" r="1.974"/>
			</g>
			<g>
				<circle cx="821.637" cy="382.484" r="1.974"/>
				<circle cx="829.244" cy="382.484" r="1.974"/>
				<circle cx="836.851" cy="382.484" r="1.974"/>
				<circle cx="844.458" cy="382.484" r="1.974"/>
				<circle cx="852.064" cy="382.484" r="1.974"/>
				<circle cx="859.672" cy="382.484" r="1.974"/>
				<circle cx="867.278" cy="382.484" r="1.974"/>
				<circle cx="874.886" cy="382.484" r="1.974"/>
				<circle cx="882.492" cy="382.484" r="1.974"/>
				<circle cx="890.099" cy="382.484" r="1.974"/>
				<circle cx="897.706" cy="382.484" r="1.974"/>
				<circle cx="905.313" cy="382.484" r="1.973"/>
			</g>
			<g>
				<circle cx="821.637" cy="390.076" r="1.974"/>
				<circle cx="829.244" cy="390.076" r="1.974"/>
				<circle cx="836.851" cy="390.076" r="1.973"/>
				<circle cx="844.458" cy="390.076" r="1.974"/>
				<circle cx="852.064" cy="390.076" r="1.974"/>
				<circle cx="859.672" cy="390.076" r="1.974"/>
				<circle cx="867.278" cy="390.076" r="1.974"/>
				<circle cx="874.886" cy="390.076" r="1.974"/>
				<circle cx="882.492" cy="390.076" r="1.974"/>
				<circle cx="890.099" cy="390.076" r="1.974"/>
				<circle cx="897.706" cy="390.076" r="1.974"/>
				<circle cx="905.313" cy="390.076" r="1.973"/>
			</g>
		</g>
	</g>
	<g>
		<defs>
			<circle id="SVGID_7_" cx="613.59" cy="941.033" r="43.737"/>
		</defs>
		<clipPath id="SVGID_8_">
			<use xlink:href="#SVGID_7_"  overflow="visible"/>
		</clipPath>
		<g clip-path="url(#SVGID_8_)">
			<g>
				<circle cx="569.647" cy="897.174" r="2.073"/>
				<circle cx="577.636" cy="897.174" r="2.073"/>
				<circle cx="585.626" cy="897.174" r="2.073"/>
				<circle cx="593.616" cy="897.174" r="2.073"/>
				<circle cx="601.605" cy="897.174" r="2.073"/>
				<circle cx="609.595" cy="897.174" r="2.073"/>
				<circle cx="617.584" cy="897.174" r="2.073"/>
				<circle cx="625.574" cy="897.174" r="2.073"/>
				<circle cx="633.564" cy="897.174" r="2.073"/>
				<circle cx="641.554" cy="897.174" r="2.073"/>
				<circle cx="649.543" cy="897.174" r="2.073"/>
				<circle cx="657.533" cy="897.174" r="2.073"/>
			</g>
			<g>
				<circle cx="569.647" cy="905.148" r="2.073"/>
				<circle cx="577.636" cy="905.148" r="2.073"/>
				<circle cx="585.626" cy="905.148" r="2.073"/>
				<circle cx="593.616" cy="905.148" r="2.073"/>
				<circle cx="601.605" cy="905.148" r="2.073"/>
				<circle cx="609.595" cy="905.148" r="2.073"/>
				<circle cx="617.584" cy="905.148" r="2.073"/>
				<circle cx="625.574" cy="905.148" r="2.073"/>
				<circle cx="633.564" cy="905.148" r="2.073"/>
				<circle cx="641.554" cy="905.148" r="2.073"/>
				<circle cx="649.543" cy="905.148" r="2.073"/>
				<circle cx="657.533" cy="905.148" r="2.073"/>
			</g>
			<g>
				<circle cx="569.647" cy="913.122" r="2.073"/>
				<circle cx="577.636" cy="913.122" r="2.073"/>
				<circle cx="585.626" cy="913.122" r="2.073"/>
				<circle cx="593.616" cy="913.122" r="2.073"/>
				<circle cx="601.605" cy="913.122" r="2.073"/>
				<circle cx="609.595" cy="913.122" r="2.073"/>
				<circle cx="617.584" cy="913.122" r="2.073"/>
				<circle cx="625.574" cy="913.122" r="2.073"/>
				<circle cx="633.564" cy="913.122" r="2.073"/>
				<circle cx="641.554" cy="913.122" r="2.073"/>
				<circle cx="649.543" cy="913.122" r="2.073"/>
				<circle cx="657.533" cy="913.122" r="2.073"/>
			</g>
			<g>
				<circle cx="569.647" cy="921.097" r="2.073"/>
				<circle cx="577.636" cy="921.097" r="2.073"/>
				<circle cx="585.626" cy="921.097" r="2.073"/>
				<circle cx="593.616" cy="921.097" r="2.073"/>
				<circle cx="601.605" cy="921.097" r="2.073"/>
				<circle cx="609.595" cy="921.097" r="2.073"/>
				<circle cx="617.584" cy="921.097" r="2.073"/>
				<circle cx="625.574" cy="921.097" r="2.073"/>
				<circle cx="633.564" cy="921.097" r="2.073"/>
				<circle cx="641.554" cy="921.097" r="2.073"/>
				<circle cx="649.543" cy="921.097" r="2.073"/>
				<circle cx="657.533" cy="921.097" r="2.073"/>
			</g>
			<g>
				<circle cx="569.647" cy="929.071" r="2.073"/>
				<circle cx="577.636" cy="929.071" r="2.073"/>
				<circle cx="585.626" cy="929.071" r="2.073"/>
				<circle cx="593.616" cy="929.071" r="2.073"/>
				<circle cx="601.605" cy="929.071" r="2.073"/>
				<circle cx="609.595" cy="929.071" r="2.073"/>
				<circle cx="617.584" cy="929.071" r="2.073"/>
				<circle cx="625.574" cy="929.071" r="2.073"/>
				<circle cx="633.564" cy="929.071" r="2.073"/>
				<circle cx="641.554" cy="929.071" r="2.073"/>
				<circle cx="649.543" cy="929.071" r="2.073"/>
				<circle cx="657.533" cy="929.071" r="2.073"/>
			</g>
			<g>
				<circle cx="569.647" cy="937.046" r="2.073"/>
				<circle cx="577.636" cy="937.046" r="2.073"/>
				<circle cx="585.626" cy="937.046" r="2.073"/>
				<circle cx="593.616" cy="937.046" r="2.073"/>
				<circle cx="601.605" cy="937.046" r="2.073"/>
				<circle cx="609.595" cy="937.046" r="2.073"/>
				<circle cx="617.584" cy="937.046" r="2.073"/>
				<circle cx="625.574" cy="937.046" r="2.073"/>
				<circle cx="633.564" cy="937.046" r="2.073"/>
				<circle cx="641.554" cy="937.046" r="2.073"/>
				<circle cx="649.543" cy="937.046" r="2.073"/>
				<circle cx="657.533" cy="937.046" r="2.073"/>
			</g>
			<g>
				<circle cx="569.647" cy="945.021" r="2.073"/>
				<circle cx="577.636" cy="945.021" r="2.073"/>
				<circle cx="585.626" cy="945.021" r="2.073"/>
				<circle cx="593.616" cy="945.021" r="2.073"/>
				<circle cx="601.605" cy="945.021" r="2.073"/>
				<circle cx="609.595" cy="945.021" r="2.073"/>
				<circle cx="617.584" cy="945.021" r="2.073"/>
				<circle cx="625.574" cy="945.021" r="2.073"/>
				<circle cx="633.564" cy="945.021" r="2.073"/>
				<circle cx="641.554" cy="945.021" r="2.073"/>
				<circle cx="649.543" cy="945.021" r="2.073"/>
				<circle cx="657.533" cy="945.021" r="2.073"/>
			</g>
			<g>
				<circle cx="569.647" cy="952.995" r="2.073"/>
				<circle cx="577.636" cy="952.994" r="2.073"/>
				<circle cx="585.626" cy="952.994" r="2.073"/>
				<circle cx="593.616" cy="952.994" r="2.073"/>
				<circle cx="601.605" cy="952.994" r="2.073"/>
				<circle cx="609.595" cy="952.994" r="2.073"/>
				<circle cx="617.584" cy="952.994" r="2.073"/>
				<circle cx="625.574" cy="952.995" r="2.073"/>
				<circle cx="633.564" cy="952.994" r="2.073"/>
				<circle cx="641.554" cy="952.994" r="2.073"/>
				<circle cx="649.543" cy="952.994" r="2.073"/>
				<circle cx="657.533" cy="952.994" r="2.073"/>
			</g>
			<g>
				<circle cx="569.647" cy="960.969" r="2.073"/>
				<circle cx="577.636" cy="960.969" r="2.073"/>
				<circle cx="585.626" cy="960.969" r="2.073"/>
				<circle cx="593.615" cy="960.969" r="2.073"/>
				<circle cx="601.605" cy="960.969" r="2.073"/>
				<circle cx="609.595" cy="960.969" r="2.073"/>
				<circle cx="617.584" cy="960.969" r="2.073"/>
				<circle cx="625.574" cy="960.969" r="2.073"/>
				<circle cx="633.564" cy="960.969" r="2.073"/>
				<circle cx="641.554" cy="960.969" r="2.073"/>
				<circle cx="649.543" cy="960.969" r="2.073"/>
				<circle cx="657.533" cy="960.969" r="2.073"/>
			</g>
			<g>
				<circle cx="569.647" cy="968.943" r="2.073"/>
				<circle cx="577.636" cy="968.943" r="2.073"/>
				<circle cx="585.626" cy="968.943" r="2.073"/>
				<circle cx="593.615" cy="968.943" r="2.073"/>
				<circle cx="601.605" cy="968.943" r="2.073"/>
				<circle cx="609.595" cy="968.943" r="2.073"/>
				<circle cx="617.584" cy="968.943" r="2.073"/>
				<circle cx="625.574" cy="968.943" r="2.073"/>
				<circle cx="633.564" cy="968.943" r="2.073"/>
				<circle cx="641.554" cy="968.943" r="2.073"/>
				<circle cx="649.543" cy="968.943" r="2.073"/>
				<circle cx="657.533" cy="968.943" r="2.073"/>
			</g>
			<g>
				<circle cx="569.647" cy="976.918" r="2.073"/>
				<circle cx="577.636" cy="976.918" r="2.073"/>
				<circle cx="585.626" cy="976.918" r="2.073"/>
				<circle cx="593.616" cy="976.918" r="2.073"/>
				<circle cx="601.605" cy="976.918" r="2.073"/>
				<circle cx="609.595" cy="976.918" r="2.073"/>
				<circle cx="617.584" cy="976.918" r="2.073"/>
				<circle cx="625.574" cy="976.918" r="2.073"/>
				<circle cx="633.564" cy="976.918" r="2.073"/>
				<circle cx="641.554" cy="976.918" r="2.073"/>
				<circle cx="649.543" cy="976.918" r="2.073"/>
				<circle cx="657.533" cy="976.918" r="2.073"/>
			</g>
			<g>
				<circle cx="569.647" cy="984.893" r="2.073"/>
				<circle cx="577.636" cy="984.893" r="2.073"/>
				<circle cx="585.626" cy="984.893" r="2.073"/>
				<circle cx="593.616" cy="984.893" r="2.073"/>
				<circle cx="601.605" cy="984.893" r="2.073"/>
				<circle cx="609.595" cy="984.893" r="2.073"/>
				<circle cx="617.584" cy="984.893" r="2.073"/>
				<circle cx="625.574" cy="984.893" r="2.073"/>
				<circle cx="633.564" cy="984.893" r="2.073"/>
				<circle cx="641.554" cy="984.893" r="2.073"/>
				<circle cx="649.543" cy="984.893" r="2.073"/>
				<circle cx="657.533" cy="984.893" r="2.073"/>
			</g>
		</g>
	</g>
</g>
</svg>
